<?xml version="1.0" encoding="utf-8"?>
<svg version="1.2" baseProfile="tiny" xmlns="http://www.w3.org/2000/svg" xmlns:xlink="http://www.w3.org/1999/xlink"
	 x="0px" y="0px" width="32px" height="32px" viewBox="0 0 32 32" overflow="inherit" xml:space="preserve">
<path d="M28.895,3.865v19.275c-4.494,0.338-8.287,1.116-11.34,2.328V9.916c0.787-0.49,1.662-0.904,2.588-1.255
	V5.368C18.605,5.862,17.205,6.475,16,7.225C12.082,4.785,6.113,3.802,0,3.616v22.473c5.249,0.16,10.393,0.907,14.221,2.659
	c1.129,0.518,2.428,0.518,3.557,0.001c3.83-1.753,8.974-2.5,14.223-2.66V3.461C31.01,3.477,29.782,3.643,28.895,3.865z
	 M14.447,25.47c-3.055-1.212-6.848-1.991-11.34-2.329V6.902c3.688,0.31,8.194,1.06,11.34,3.016V25.47z M22.15,5.834
	c0,0.875,0,8.227,0,8.227l2.314-2.854l2.314,1.996V4.822c0-1.112,0.488-1.678,1.305-1.959c-1.716,0.255-3.6,0.691-4.583,1.005
	C22.805,4.09,22.15,4.764,22.15,5.834z"/>
</svg>
